<?xml version="1.0" encoding="UTF-8"?>
<svg width="579px" height="185px" viewBox="0 0 579 185" version="1.1" xmlns="http://www.w3.org/2000/svg" xmlns:xlink="http://www.w3.org/1999/xlink">
    <!-- Generator: Sketch 64 (93537) - https://sketch.com -->
    <title>Apiarium_Logo</title>
    <desc>Created with Sketch.</desc>
    <g id="Apiarium_Logo" stroke="none" stroke-width="1" fill="none" fill-rule="evenodd">
        <g id="Wilderness-Labs-Logo-Mono-Horizontal" transform="translate(341.000000, 129.500000)" fill="#443F35" fill-rule="nonzero">
            <path d="M26.648843,0 C27.2432231,0 27.5164463,0.697438017 27.5164463,0.697438017 L38.6006329,19.537 L44.0823967,6.15231405 C44.1951278,5.92284973 44.419553,5.77304345 44.6691694,5.75270887 L44.8872727,5.75228715 C45.1404878,5.77219259 45.3679555,5.925339 45.4796694,6.15950413 L45.4796694,6.15950413 L54.6446281,25.0382645 C54.7495151,25.2852687 54.7264613,25.5680254 54.5829477,25.7947769 C54.4394339,26.0215286 54.193749,26.1633794 53.9256198,26.1742975 L53.9256198,26.1742975 L46.1387603,26.1719008 L46.1387603,27.9742149 C46.1387603,27.9742149 46.1387603,28.7843013 45.3454545,28.7843013 C44.8995187,28.785644 44.5358383,28.4273118 44.5305785,27.981405 L44.5305785,27.981405 L44.5305785,26.1695041 L37.1008264,26.1695041 C36.8377145,26.1459156 36.6000211,26.0027695 36.4561157,25.7812397 C36.3214795,25.5159199 36.2990282,25.2076472 36.3938017,24.9256198 L36.3938017,24.9256198 L37.8366329,21.402 L34.8838843,16.3742149 L25.9418182,14.4568595 L23.3653719,16.7073554 C23.2050704,16.8721777 22.9956975,16.980648 22.768595,17.0165289 C22.5212119,16.969103 22.2906256,16.857529 22.0999174,16.6929752 L20.0004132,15.1902479 L16.7096329,21.416 L18.473719,25.0502479 C18.553922,25.2451747 18.5556255,25.4618258 18.4816361,25.6558857 L18.4281818,25.7692562 C18.2890481,26.0107085 18.0355766,26.1636967 17.7571074,26.1742975 L17.7571074,26.1742975 L9.96305785,26.1719008 L9.96286476,27.9833125 C9.95996836,28.0723113 9.91362603,28.7843013 9.17214876,28.7843013 C8.72621279,28.785644 8.36253249,28.4273118 8.35727273,27.981405 L8.35727273,27.981405 L8.35727273,26.1695041 L0.927520661,26.1695041 C0.664294494,26.146266 0.426459299,26.0030343 0.282809917,25.7812397 C0.147908463,25.5161006 0.124609173,25.2080321 0.218099174,24.9256198 L0.218099174,24.9256198 L7.90909091,6.15950413 C8.03578112,5.89445518 8.31097183,5.7331365 8.60413223,5.75206612 C8.89898448,5.73111009 9.1766191,5.8927467 9.30396694,6.15950413 L9.30396694,6.15950413 L15.8456329,19.635 L25.8004132,0.68785124 C25.8004132,0.68785124 26.0544628,0 26.648843,0 Z M8.67363636,8.5346281 L2.10669421,24.5517355 L16.4509091,24.5517355 L8.67363636,8.5346281 Z M44.8456329,8.542 L38.2823967,24.5517355 L52.6170248,24.5517355 L44.8456329,8.542 Z" id="Shape"></path>
            <path d="M57.6860331,8.93247934 L59.8430579,8.93247934 L60.9575207,16.6761983 L61.1324793,17.8266116 C61.2187603,18.4233884 61.2834711,18.998595 61.3266116,19.5282645 L61.4368595,20.9447107 C61.4711893,21.1194734 61.4928161,21.2964929 61.5015702,21.4743802 L61.5471074,20.9447107 C61.7196694,19.0872727 61.9161983,17.4934711 62.1366942,16.1513223 L63.3134711,8.93966942 L65.0175207,8.93966942 L66.1487603,15.9452066 C66.4747107,18.0015702 66.7143802,19.751157 66.8246281,21.3641322 C66.9780165,19.6624793 67.1745455,18.0902479 67.3495041,16.5707438 L67.5220661,15.4634711 L68.4615702,8.93727273 L70.5802479,8.93727273 L67.6754545,25.6158678 L65.9522314,25.6158678 L64.7826446,18.4018182 C64.7610744,18.3347107 64.6939669,17.9368595 64.5861157,17.1627273 L64.3680165,15.4850413 C64.3464463,15.2453719 64.2793388,14.734876 64.1930579,13.9367769 L64.1499174,13.2177686 C64.1259504,13.5724793 64.0828099,13.7929752 64.0612397,13.9703306 C63.9965289,14.9290083 63.9533884,15.4514876 63.9318182,15.5401653 L63.7113223,17.1555372 C63.6034711,17.8745455 63.5603306,18.3059504 63.5387603,18.3946281 L62.3140496,25.6110744 L60.547686,25.6110744 L57.6860331,8.93247934 Z" id="Path"></path>
            <polygon id="Path" points="73.6144628 8.93247934 75.8409917 8.93247934 75.8409917 25.6110744 73.6144628 25.6110744"></polygon>
            <polygon id="Path" points="79.5295041 8.93247934 81.7560331 8.93247934 81.7560331 23.7104959 85.3822314 23.7104959 85.3822314 25.6110744 79.5295041 25.6110744"></polygon>
            <path d="M88.4380165,8.93247934 L91.1678512,8.93247934 C91.8781542,8.90842614 92.5873571,9.00568826 93.2649587,9.22008264 C93.816114,9.40501852 94.3065744,9.73641084 94.6838017,10.1787603 C95.337894,10.9553313 95.7877006,11.8829538 95.9923967,12.877438 C96.2776033,13.9631405 96.3854545,15.487438 96.3854545,17.5006612 C96.4168843,19.0097289 96.2704765,20.5172472 95.9492562,21.9920661 C95.6664463,23.0969421 95.206281,23.9381818 94.5519835,24.5349587 C93.7442975,25.2539669 92.3038843,25.6182645 90.2379339,25.6182645 L88.4380165,25.6182645 L88.4380165,8.93247934 Z M90.6669421,23.6433884 C91.9971074,23.6433884 92.9150413,23.2239669 93.3728099,22.4042975 C93.8305785,21.5846281 94.0726446,19.9716529 94.0726446,17.5821488 C94.0726446,14.993719 93.8545455,13.2249587 93.3943802,12.2734711 C92.9342149,11.3219835 92.1289256,10.8354545 90.9281818,10.8354545 L90.6669421,10.8354545 L90.6669421,23.6433884 Z" id="Shape"></path>
            <polygon id="Path" points="99.9565289 8.93247934 105.852397 8.93247934 105.852397 10.8354545 102.183058 10.8354545 102.183058 16.122562 105.437769 16.122562 105.437769 18.0255372 102.183058 18.0255372 102.183058 23.7104959 105.852397 23.7104959 105.852397 25.6110744 99.9565289 25.6110744"></polygon>
            <path d="M109.214959,8.93247934 L112.141322,8.93247934 C113.339669,8.93247934 114.236033,9.22008264 114.82562,9.8192562 C115.590165,10.5718182 115.961653,11.7198347 115.961653,13.2680992 C115.961653,15.6647934 115.132397,17.1627273 113.668017,17.4934711 L116.704628,25.6110744 L114.454132,25.6110744 L111.446281,17.4503306 L111.446281,25.6110744 L109.219752,25.6110744 L109.214959,8.93247934 Z M111.446281,16.3214876 C113.171901,16.3214876 113.804628,15.6024793 113.804628,13.6683471 C113.804628,11.5880165 113.193471,10.792314 111.817769,10.792314 L111.446281,10.792314 L111.446281,16.3214876 Z" id="Shape"></path>
            <path d="M119.911405,8.93247934 L121.991736,8.93247934 L124.196694,15.5904959 C124.829421,17.4719008 125.395041,19.485124 125.898347,21.608595 C125.567398,19.4710932 125.391979,17.3123954 125.373471,15.1495041 L125.373471,8.93247934 L127.602397,8.93247934 L127.602397,25.6110744 L125.505289,25.6110744 L123.034298,18.1142149 C122.547637,16.6490297 122.147499,15.1565122 121.83595,13.6443802 C121.81438,13.4454545 121.725702,13.1650413 121.639421,12.7815702 C121.690542,13.0519751 121.719399,13.3261172 121.725702,13.6012397 L121.83595,15.3028926 L121.965372,17.3616529 C121.965372,17.6013223 121.989339,17.9152893 121.989339,18.3347107 L122.09719,25.6110744 L119.913802,25.6110744 L119.911405,8.93247934 Z" id="Path"></path>
            <polygon id="Path" points="131.492231 8.93247934 137.388099 8.93247934 137.388099 10.8354545 133.71876 10.8354545 133.71876 16.122562 136.973471 16.122562 136.973471 18.0255372 133.71876 18.0255372 133.71876 23.7104959 137.388099 23.7104959 137.388099 25.6110744 131.492231 25.6110744"></polygon>
            <path d="M146.354132,11.4777686 C145.678264,10.9984298 145.067107,10.7587603 144.520661,10.7587603 C143.977652,10.737704 143.454888,10.9664132 143.101818,11.3795041 C142.712296,11.8156625 142.508483,12.3866828 142.533802,12.9709091 C142.521034,13.4995554 142.657241,14.0211311 142.92686,14.4760331 C143.484778,15.2415695 144.113922,15.9525655 144.805868,16.5995041 C145.541297,17.3006308 146.160225,18.1145403 146.639339,19.0105785 C146.990868,19.7646023 147.162349,20.5900061 147.140248,21.4216529 C147.180049,22.5812507 146.791905,23.7149735 146.049752,24.6068595 C145.36257,25.4057999 144.351727,25.8522264 143.298347,25.8219835 C142.427023,25.8407465 141.574335,25.5683253 140.875289,25.0478512 L140.875289,22.8021488 C141.661405,23.3989256 142.38281,23.6865289 143.032314,23.6865289 C144.230661,23.6865289 144.949669,22.8021488 144.949669,21.4096694 C144.957521,20.8400341 144.823253,20.277426 144.559008,19.7727273 C144.143766,19.1196926 143.654826,18.5165596 143.101818,17.9752066 C141.965785,16.8919008 141.225207,16.0075207 140.875289,15.3652066 C140.518954,14.6127864 140.347232,13.7862224 140.37438,12.9541322 C140.37438,11.6503306 140.700331,10.6317355 141.378595,9.85760331 C142.05686,9.08347107 142.94843,8.70719008 144.084463,8.70719008 C144.876563,8.71130593 145.65568,8.90875902 146.354132,9.28239669 L146.354132,11.4777686 Z" id="Path"></path>
            <path d="M155.849835,11.4777686 C155.173967,10.9984298 154.56281,10.7587603 154.016364,10.7587603 C153.473354,10.737704 152.95059,10.9664132 152.597521,11.3795041 C152.207999,11.8156625 152.004186,12.3866828 152.029504,12.9709091 C152.021156,13.4961978 152.159787,14.0133648 152.429752,14.4640496 C152.987671,15.229586 153.616814,15.940582 154.30876,16.5875207 C155.04419,17.2886473 155.663117,18.1025568 156.142231,18.998595 C156.494586,19.7524208 156.666889,20.5778333 156.645537,21.4096694 C156.682663,22.5705064 156.291057,23.704372 155.545455,24.594876 C154.858273,25.3938164 153.84743,25.8402429 152.79405,25.81 C151.922725,25.828763 151.070038,25.5563418 150.370992,25.0358678 L150.370992,22.8021488 C151.157107,23.3989256 151.878512,23.6865289 152.528017,23.6865289 C153.726364,23.6865289 154.445372,22.8021488 154.445372,21.4096694 C154.453224,20.8400341 154.318955,20.277426 154.054711,19.7727273 C153.639468,19.1196926 153.150528,18.5165596 152.597521,17.9752066 C151.463884,16.8919008 150.720909,16.0075207 150.370992,15.3652066 C150.014656,14.6127864 149.842935,13.7862224 149.870083,12.9541322 C149.870083,11.6503306 150.196033,10.6317355 150.874298,9.85760331 C151.552562,9.08347107 152.444132,8.70719008 153.580165,8.70719008 C154.372266,8.71130593 155.151383,8.90875902 155.849835,9.28239669 L155.849835,11.4777686 Z" id="Path"></path>
            <polygon id="Path" points="167.289256 8.93247934 169.515785 8.93247934 169.515785 23.7104959 173.141983 23.7104959 173.141983 25.6110744 167.289256 25.6110744"></polygon>
            <path d="M179.950992,8.93247934 L181.669421,8.93247934 L185.182975,25.6110744 L182.999587,25.6110744 L182.37405,22.361157 L179.121736,22.361157 L178.489008,25.6110744 L176.34876,25.6110744 L179.950992,8.93247934 Z M182.069669,20.6115702 L181.566364,17.9560331 C181.246804,16.1409366 180.984766,14.2163912 180.780248,12.1823967 C180.583719,14.1524793 180.257769,16.1872727 179.84314,18.4880992 L179.426116,20.6115702 L182.069669,20.6115702 Z" id="Shape"></path>
            <path d="M187.92,8.93247934 L190.932645,8.93247934 C193.267025,8.93247934 194.448595,10.4160331 194.448595,13.3807438 C194.448595,15.6144628 193.923719,16.5875207 192.373058,17.1387603 C193.267025,17.4934711 193.880579,17.9584298 194.206529,18.5120661 C194.532479,19.0657025 194.709835,19.9045455 194.709835,21.0118182 C194.709835,24.0843802 193.420413,25.6110744 190.822397,25.6110744 L187.92,25.6110744 L187.92,8.93247934 Z M190.014711,16.2783471 C190.865537,16.2783471 191.479091,16.0794215 191.805041,15.6791736 C192.130992,15.2789256 192.308347,14.5071901 192.308347,13.4454545 C192.308347,11.655124 191.67562,10.7467769 190.390992,10.7467769 L190.019504,10.7467769 L190.014711,16.2783471 Z M190.014711,23.6865289 C191.826612,23.6865289 192.411405,23.0010744 192.411405,20.9447107 C192.411405,19.8829752 192.236446,19.1304132 191.864959,18.7109917 C191.493471,18.2915702 190.906281,18.0686777 190.009917,18.0686777 L190.014711,23.6865289 Z" id="Shape"></path>
            <path d="M203.57281,11.4777686 C202.893747,10.9984298 202.281791,10.7587603 201.736942,10.7587603 C201.194001,10.7380616 200.671386,10.9667056 200.318099,11.3795041 C199.929222,11.8159017 199.726251,12.3869739 199.752479,12.9709091 C199.738536,13.4996912 199.874827,14.0215872 200.145537,14.4760331 C200.701629,15.2423196 201.330053,15.9534098 202.022149,16.5995041 C202.757578,17.3006308 203.376506,18.1145403 203.85562,19.0105785 C204.207975,19.7644042 204.380278,20.5898168 204.358926,21.4216529 C204.398058,22.5815602 204.009048,23.7153186 203.266033,24.6068595 C202.579062,25.4060837 201.568076,25.852573 200.514628,25.8219835 C199.643357,25.8403795 198.790786,25.5679952 198.09157,25.0478512 L198.09157,22.8021488 C198.877686,23.3989256 199.599091,23.6865289 200.248595,23.6865289 C201.446942,23.6865289 202.16595,22.8021488 202.16595,21.4096694 C202.173064,20.8398295 202.037969,20.2772098 201.772893,19.7727273 C201.358399,19.1198184 200.870268,18.5166906 200.318099,17.9752066 C199.184463,16.8919008 198.441488,16.0075207 198.09157,15.3652066 C197.736633,14.612318 197.564983,13.7860949 197.590661,12.9541322 C197.590661,11.6503306 197.916612,10.6317355 198.594876,9.85760331 C199.27314,9.08347107 200.167107,8.70719008 201.300744,8.70719008 C202.09357,8.71159156 202.873396,8.90901587 203.57281,9.28239669 L203.57281,11.4777686 Z" id="Path"></path>
        </g>
        <g id="Icon" transform="translate(450.000000, 20.500000)">
            <g id="Honeycomb" stroke="#5AC0EA" stroke-width="3">
                <path d="M22.5,1.73205081 L4.51442841,12.1160254 L4.51442841,32.8839746 L22.5,43.2679492 L40.4855716,32.8839746 L40.4855716,12.1160254 L22.5,1.73205081 Z" id="Polygon"></path>
                <path d="M40.5,32.7320508 L22.5144284,43.1160254 L22.5144284,63.8839746 L40.5,74.2679492 L58.4855716,63.8839746 L58.4855716,43.1160254 L40.5,32.7320508 Z" id="Polygon-Copy"></path>
                <path d="M58.5,1.73205081 L40.5144284,12.1160254 L40.5144284,32.8839746 L58.5,43.2679492 L76.4855716,32.8839746 L76.4855716,12.1160254 L58.5,1.73205081 Z" id="Polygon-Copy-2"></path>
                <path d="M76.5,32.7320508 L58.5144284,43.1160254 L58.5144284,63.8839746 L76.5,74.2679492 L94.4855716,63.8839746 L94.4855716,43.1160254 L76.5,32.7320508 Z" id="Polygon-Copy-3"></path>
            </g>
            <g id="Therm" transform="translate(50.500000, 19.500000)">
                <path d="M12,0 C15.994103,0 19.2319631,3.23786019 19.2319631,7.23196314 L19.2319631,7.23196314 L19.2315689,53.3868409 C22.1282782,55.5775492 24,59.0521557 24,62.9639263 C24,69.5913433 18.627417,74.9639263 12,74.9639263 C5.372583,74.9639263 0,69.5913433 0,62.9639263 C0,59.0521557 1.87172175,55.5775492 4.76843105,53.3868409 L4.76803686,7.23196314 L4.77206141,6.98839223 C4.90050939,3.10705117 8.08740935,0 12,0 Z" id="Combined-Shape" fill="#84705B"></path>
                <path d="M12,2.23196314 C14.7614237,2.23196314 17,4.47053939 17,7.23196314 L17,7.23196314 L17,40.2319631 L7,40.2319631 L7,7.23196314 L7.00461951,7.01507352 C7.11818189,4.35426985 9.3112453,2.23196314 12,2.23196314 Z" id="Combined-Shape" fill="#B8E4F6"></path>
                <circle id="Oval-Copy-2" fill="#EF7D3B" cx="12" cy="62.9639263" r="9.5"></circle>
                <rect id="Rectangle-Copy-2" fill="#EF7D3B" x="7" y="39.7051068" width="10" height="24"></rect>
                <line x1="23.7680369" y1="16.4639263" x2="33.7680369" y2="16.4639263" id="Path-4" stroke="#84705B" stroke-width="2" stroke-linecap="round" stroke-linejoin="round"></line>
                <line x1="23.7680369" y1="23.4639263" x2="33.7680369" y2="23.4639263" id="Path-4-Copy" stroke="#84705B" stroke-width="2" stroke-linecap="round" stroke-linejoin="round"></line>
                <line x1="23.7680369" y1="30.4639263" x2="33.7680369" y2="30.4639263" id="Path-4-Copy-2" stroke="#84705B" stroke-width="2" stroke-linecap="round" stroke-linejoin="round"></line>
                <line x1="23.7680369" y1="37.4639263" x2="33.7680369" y2="37.4639263" id="Path-4-Copy-3" stroke="#84705B" stroke-width="2" stroke-linecap="round" stroke-linejoin="round"></line>
            </g>
        </g>
        <text id="Apiarium" font-family="Wavehaus-28Thin, Wavehaus" font-size="100" font-weight="300" fill="#F39E6C">
            <tspan x="23" y="115">Apiarium</tspan>
        </text>
        <text id="by" font-family="Wavehaus-66Book, Wavehaus" font-size="14" font-weight="300" fill="#443F35">
            <tspan x="320" y="155.5">by</tspan>
        </text>
    </g>
</svg>