<?xml version="1.0" encoding="UTF-8"?>
<svg width="570px" height="180px" viewBox="0 0 570 180" version="1.1" xmlns="http://www.w3.org/2000/svg" xmlns:xlink="http://www.w3.org/1999/xlink">
    <title>Apiarium_Logo</title>
    <g id="Apiarium_Logo" stroke="none" stroke-width="1" fill="none" fill-rule="evenodd">
        <rect id="Rectangle" fill="#FFFFFF" x="0" y="0" width="570" height="180"></rect>
        <g id="Icon" transform="translate(440.000000, 20.500000)">
            <g id="Honeycomb" stroke="#5AC0EA" stroke-width="3">
                <path d="M22.5,1.73205081 L40.4855716,12.1160254 L40.4855716,32.8839746 L22.5,43.2679492 L4.51442841,32.8839746 L4.51442841,12.1160254 L22.5,1.73205081 Z" id="Polygon"></path>
                <path d="M40.5,32.7320508 L58.4855716,43.1160254 L58.4855716,63.8839746 L40.5,74.2679492 L22.5144284,63.8839746 L22.5144284,43.1160254 L40.5,32.7320508 Z" id="Polygon-Copy"></path>
                <path d="M58.5,1.73205081 L76.4855716,12.1160254 L76.4855716,32.8839746 L58.5,43.2679492 L40.5144284,32.8839746 L40.5144284,12.1160254 L58.5,1.73205081 Z" id="Polygon-Copy-2"></path>
                <path d="M76.5,32.7320508 L94.4855716,43.1160254 L94.4855716,63.8839746 L76.5,74.2679492 L58.5144284,63.8839746 L58.5144284,43.1160254 L76.5,32.7320508 Z" id="Polygon-Copy-3"></path>
            </g>
            <g id="Therm" transform="translate(50.500000, 19.500000)">
                <path d="M12,0 C15.994103,0 19.2319631,3.23786019 19.2319631,7.23196314 L19.2319631,7.23196314 L19.2315689,53.3868409 C22.1282782,55.5775492 24,59.0521557 24,62.9639263 C24,69.5913433 18.627417,74.9639263 12,74.9639263 C5.372583,74.9639263 0,69.5913433 0,62.9639263 C0,59.0521557 1.87172175,55.5775492 4.76843105,53.3868409 L4.76803686,7.23196314 L4.77206141,6.98839223 C4.90050939,3.10705117 8.08740935,0 12,0 Z" id="Combined-Shape" fill="#84705B"></path>
                <path d="M12,2.23196314 C14.7614237,2.23196314 17,4.47053939 17,7.23196314 L17,7.23196314 L17,40.2319631 L7,40.2319631 L7,7.23196314 L7.00461951,7.01507352 C7.11818189,4.35426985 9.3112453,2.23196314 12,2.23196314 Z" id="Combined-Shape" fill="#B8E4F6"></path>
                <circle id="Oval-Copy-2" fill="#EF7D3B" cx="12" cy="62.9639263" r="9.5"></circle>
                <rect id="Rectangle-Copy-2" fill="#EF7D3B" x="7" y="39.7051068" width="10" height="24"></rect>
            </g>
            <g id="Therm" transform="translate(50.500000, 19.500000)">
                <path d="M12,0 C15.9125906,0 19.0994906,3.10705117 19.2279386,6.98839223 L19.2319631,7.23196314 L19.2315689,53.3868409 C22.1282782,55.5775492 24,59.0521557 24,62.9639263 C24,69.5913433 18.627417,74.9639263 12,74.9639263 C5.372583,74.9639263 0,69.5913433 0,62.9639263 C0,59.0521557 1.87172175,55.5775492 4.76843105,53.3868409 L4.76803686,7.23196314 L4.77206141,6.98839223 C4.90050939,3.10705117 8.08740935,0 12,0 Z M17,7.23196314 L16.9953805,7.01507352 C16.8818181,4.35426985 14.6887547,2.23196314 12,2.23196314 C9.38593293,2.23196314 7.24040122,4.2380015 7.01886276,6.79462034 L7.00461951,7.01507352 L7,7.23196314 L7,39.7051068 L17,39.7051068 L17,7.23196314 Z" id="Combined-Shape" fill="#5AC0EA"></path>
                <polygon id="Path-6" stroke="#5AC0EA" stroke-linecap="round" stroke-linejoin="round" points="23.5 23.5 34 23.5 34.5 24 34 24.5 23.5 24.5 23 24"></polygon>
                <polygon id="Path-6-Copy" stroke="#5AC0EA" stroke-linecap="round" stroke-linejoin="round" points="23.5 30.5 34 30.5 34.5 31 34 31.5 23.5 31.5 23 31"></polygon>
                <polygon id="Path-6-Copy-2" stroke="#5AC0EA" stroke-linecap="round" stroke-linejoin="round" points="23.5 37.5 34 37.5 34.5 38 34 38.5 23.5 38.5 23 38"></polygon>
            </g>
        </g>
        <path d="M30,115 L40.2,91 L74,91 L84.2,115 L87,115 L58.5,47.8 L55.7,47.8 L27.2,115 L30,115 Z M72.8,88.2 L41.4,88.2 L57.1,51.1 L72.8,88.2 Z M102.5,139.2 L102.5,101.5 C104.7,105.766667 107.85,109.183333 111.95,111.75 C116.05,114.316667 120.566667,115.6 125.5,115.6 C132.633333,115.6 138.716667,113.083333 143.75,108.05 C148.783333,103.016667 151.3,96.9333333 151.3,89.8 C151.3,82.6666667 148.783333,76.5833333 143.75,71.55 C138.716667,66.5166667 132.633333,64 125.5,64 C120.566667,64 116.05,65.2833333 111.95,67.85 C107.85,70.4166667 104.7,73.8333333 102.5,78.1 L102.5,78.1 L102.5,64.8 L99.7,64.8 L99.7,139.2 L102.5,139.2 Z M125.5,112.8 C119.166667,112.8 113.733333,110.566667 109.2,106.1 C104.733333,101.566667 102.5,96.1333333 102.5,89.8 C102.5,83.4666667 104.75,78.0333333 109.25,73.5 C113.75,68.9666667 119.166667,66.7 125.5,66.7 C131.833333,66.7 137.266667,68.9666667 141.8,73.5 C146.333333,78.0333333 148.6,83.4666667 148.6,89.8 C148.6,96.1333333 146.333333,101.55 141.8,106.05 C137.266667,110.55 131.833333,112.8 125.5,112.8 Z M167.2,48.3 C167.8,48.3 168.3,48.1 168.7,47.7 C169.166667,47.2333333 169.4,46.7 169.4,46.1 C169.4,45.5 169.183333,44.9833333 168.75,44.55 C168.316667,44.1166667 167.8,43.9 167.2,43.9 C166.6,43.9 166.083333,44.1166667 165.65,44.55 C165.216667,44.9833333 165,45.5 165,46.1 C165,46.7 165.216667,47.2166667 165.65,47.65 C166.083333,48.0833333 166.6,48.3 167.2,48.3 Z M168.6,115 L168.6,65 L165.8,65 L165.8,115 L168.6,115 Z M207.9,115.8 C212.833333,115.8 217.35,114.516667 221.45,111.95 C225.55,109.383333 228.7,105.966667 230.9,101.7 L230.9,101.7 L230.9,115 L233.7,115 L233.7,65 L230.9,65 L230.9,78.3 C228.7,74.0333333 225.55,70.6166667 221.45,68.05 C217.35,65.4833333 212.833333,64.2 207.9,64.2 C200.766667,64.2 194.683333,66.7166667 189.65,71.75 C184.616667,76.7833333 182.1,82.8666667 182.1,90 C182.1,97.1333333 184.616667,103.216667 189.65,108.25 C194.683333,113.283333 200.766667,115.8 207.9,115.8 Z M207.9,113 C201.566667,113 196.133333,110.766667 191.6,106.3 C187.066667,101.766667 184.8,96.3333333 184.8,90 C184.8,83.6666667 187.066667,78.25 191.6,73.75 C196.133333,69.25 201.566667,67 207.9,67 C214.233333,67 219.65,69.25 224.15,73.75 C228.65,78.25 230.9,83.6666667 230.9,90 C230.9,96.3333333 228.65,101.75 224.15,106.25 C219.65,110.75 214.233333,113 207.9,113 Z M251.9,115 L251.9,84.6 C251.9,79.6666667 253.616667,75.4833333 257.05,72.05 C260.483333,68.6166667 264.633333,66.9 269.5,66.9 C273.033333,66.9 276.333333,67.9333333 279.4,70 L279.4,70 L280.8,67.6 C277.4,65.3333333 273.633333,64.2 269.5,64.2 C265.766667,64.2 262.35,65.1166667 259.25,66.95 C256.15,68.7833333 253.7,71.2333333 251.9,74.3 L251.9,74.3 L251.9,65 L249.1,65 L249.1,115 L251.9,115 Z M293.7,48.3 C294.3,48.3 294.8,48.1 295.2,47.7 C295.666667,47.2333333 295.9,46.7 295.9,46.1 C295.9,45.5 295.683333,44.9833333 295.25,44.55 C294.816667,44.1166667 294.3,43.9 293.7,43.9 C293.1,43.9 292.583333,44.1166667 292.15,44.55 C291.716667,44.9833333 291.5,45.5 291.5,46.1 C291.5,46.7 291.716667,47.2166667 292.15,47.65 C292.583333,48.0833333 293.1,48.3 293.7,48.3 Z M295.1,115 L295.1,65 L292.3,65 L292.3,115 L295.1,115 Z M332.3,115.8 C336.033333,115.8 339.45,114.883333 342.55,113.05 C345.65,111.216667 348.1,108.766667 349.9,105.7 L349.9,105.7 L349.9,115 L352.7,115 L352.7,65 L349.9,65 L349.9,95.4 C349.9,100.266667 348.183333,104.416667 344.75,107.85 C341.316667,111.283333 337.166667,113 332.3,113 C327.433333,113 323.283333,111.283333 319.85,107.85 C316.416667,104.416667 314.7,100.266667 314.7,95.4 L314.7,95.4 L314.7,65 L311.9,65 L311.9,95.4 C311.9,101.066667 313.9,105.883333 317.9,109.85 C321.9,113.816667 326.7,115.8 332.3,115.8 Z M371.2,115 L371.2,84.6 C371.2,79.7333333 372.916667,75.5666667 376.35,72.1 C379.783333,68.6333333 383.933333,66.9 388.8,66.9 C393.666667,66.9 397.816667,68.6333333 401.25,72.1 C404.683333,75.5666667 406.4,79.7333333 406.4,84.6 L406.4,84.6 L406.4,115 L409.2,115 L409.2,84.6 C409.2,79.7333333 410.916667,75.5666667 414.35,72.1 C417.783333,68.6333333 421.933333,66.9 426.8,66.9 C431.666667,66.9 435.816667,68.6166667 439.25,72.05 C442.683333,75.4833333 444.4,79.6666667 444.4,84.6 L444.4,84.6 L444.4,115 L447.2,115 L447.2,84.6 C447.2,78.9333333 445.216667,74.1166667 441.25,70.15 C437.283333,66.1833333 432.466667,64.2 426.8,64.2 C422.533333,64.2 418.683333,65.4 415.25,67.8 C411.816667,70.2 409.333333,73.3333333 407.8,77.2 C406.266667,73.3333333 403.783333,70.2 400.35,67.8 C396.916667,65.4 393.066667,64.2 388.8,64.2 C385.066667,64.2 381.65,65.1166667 378.55,66.95 C375.45,68.7833333 373,71.2333333 371.2,74.3 L371.2,74.3 L371.2,65 L368.4,65 L368.4,115 L371.2,115 Z" id="Apiarium" fill="#F39E6C" fill-rule="nonzero"></path>
        <g id="Powered_by_Meadow_mono" transform="translate(317.000000, 131.000000)" fill-rule="nonzero">
            <g>
                <g id="meadow-logo-wordmark-color-h" fill="#000000">
                    <path d="M101.981069,20.5905455 L101.981069,31.584 L99.4745241,31.584 L99.4745241,20.6545418 C99.4745241,17.4545437 97.1184876,14.9178182 94.0214863,14.9178182 C90.924485,14.9178182 88.5221382,17.4516364 88.5221382,20.6545418 L88.5221382,31.5752727 L86.0532203,31.5752727 L86.0532203,20.6545418 C86.0532203,17.4545437 83.6219296,14.9178182 80.5538722,14.9178182 C77.4858149,14.9178182 75.0805737,17.4545437 75.0805737,20.6545418 L75.0805737,31.5752727 L72.6492829,31.5752727 L72.6492829,12.9483636 L75.0805737,12.9483636 L75.0805737,15.7090891 C76.453083,13.8092243 78.6405506,12.6759382 80.9764537,12.6545418 C83.7398588,12.6528856 86.2779003,14.1863533 87.5727771,16.64 C88.8260495,14.2545437 91.3354889,12.6545418 94.4267014,12.6545418 C98.7364537,12.6516364 101.981069,16.1541818 101.981069,20.5905455 Z" id="Path"></path>
                    <path d="M122.047901,24.6894545 L124.108709,25.4341818 C123.150665,28.0523636 119.946571,31.7323636 114.971108,31.6974545 C110.759647,31.6349504 107.068746,28.8500745 105.833507,24.8029091 C105.579482,23.928038 105.454656,23.0204166 105.463025,22.1090909 C105.398181,17.0307671 109.307033,12.7935405 114.350189,12.4753361 C119.393344,12.1571316 123.798748,15.8697595 124.36631,20.9163636 C124.396116,21.0755021 124.408731,21.2374109 124.403937,21.3992727 L108.302425,24.3549091 C109.150781,27.3458246 111.865179,29.4121254 114.959531,29.4225455 C118.432803,29.4225455 121.199844,27.0370909 122.047901,24.6894545 Z M107.89721,21.4894545 C107.89721,21.7134545 107.931943,21.9752727 107.931943,22.3621818 L121.639791,19.8661818 C120.705575,16.8288082 117.911373,14.7576057 114.74824,14.7578182 C111.067588,14.857912 108.083288,17.7876699 107.89721,21.4836364 L107.89721,21.4894545 Z" id="Shape"></path>
                    <path d="M146.598149,12.9483636 L146.598149,31.584 L144.166858,31.584 L144.166858,28.5643636 C141.268527,31.8749041 136.496498,32.7700439 132.605194,30.7331063 C128.71389,28.696169 126.708037,24.2530865 127.745417,19.9684145 C128.782796,15.6837424 132.595559,12.6637722 136.982973,12.6514321 C139.746924,12.6386633 142.375719,13.8522181 144.166858,15.968 L144.166858,12.9483636 L146.598149,12.9483636 Z M144.094498,22.2574545 C144.094498,18.1847273 140.997497,14.9847273 137.017705,14.9847273 C133.021381,14.9847273 129.781721,18.2408382 129.781721,22.2574545 C129.781721,26.2740709 133.021381,29.5301838 137.017705,29.5301838 C140.997497,29.5330909 144.094498,26.3301818 144.094498,22.2661818 L144.094498,22.2574545 Z" id="Shape"></path>
                    <path d="M169.492803,3.85745455 L169.492803,31.584 L167.061512,31.584 L167.061512,28.5643636 C164.163181,31.8749041 159.391152,32.7700439 155.499848,30.7331063 C151.608545,28.696169 149.602691,24.2530865 150.640071,19.9684145 C151.67745,15.6837424 155.490214,12.6637722 159.877627,12.6516364 C162.641579,12.6386633 165.270373,13.8522181 167.061512,15.968 L167.061512,3.85745455 L169.492803,3.85745455 Z M166.989153,22.2661818 C166.989153,18.1934545 163.892151,14.9934545 159.91236,14.9934545 C155.932568,14.9934545 152.800834,18.1934545 152.800834,22.2661818 C152.800834,26.3389091 155.932568,29.5389091 159.91236,29.5389091 C163.892151,29.5389091 166.989153,26.3301818 166.989153,22.2661818 Z" id="Shape"></path>
                    <path d="M173.449124,22.2661818 C173.481364,16.9960409 177.752311,12.7467198 182.99588,12.7679187 C188.239449,12.7894371 192.475988,17.0734117 192.46545,22.3436396 C192.454834,27.6138675 188.201135,31.8807273 182.957523,31.8807273 C180.425999,31.8799956 177.999219,30.8649356 176.214602,29.0603363 C174.429985,27.2557371 173.434802,24.8105177 173.449124,22.2661818 Z M190.069048,22.2661818 C190.069048,18.1934545 186.974941,14.9614545 182.99515,14.9614545 C179.015359,14.9614545 175.918357,18.2050909 175.918357,22.2661818 C175.918357,26.3272727 179.050091,29.5389091 182.99515,29.5389091 C186.940209,29.5389091 190.069048,26.3301818 190.069048,22.2661818 Z" id="Shape"></path>
                    <polygon id="Path" points="222 12.9483636 215.478931 31.584 213.027379 31.584 207.817471 16.2298182 202.607562 31.584 200.176271 31.584 193.692829 12.9483636 196.12412 12.9483636 201.394811 28.1192727 206.700235 12.9483636 208.908657 12.9483636 214.216975 28.1192727 219.522399 12.9483636"></polygon>
                    <path d="M22,31.56 L1.28800522,31.5607273 C0.816831223,31.5607273 0.386334771,31.2924049 0.176558018,30.8683636 C-0.0333726585,30.4423247 0.0101477044,29.9342519 0.289439374,29.5505455 L21.4590352,0.657454545 C21.6925549,0.337991552 22.0631913,0.149032944 22.457601,0.148363636 C22.8479246,0.152701339 23.2134984,0.341265161 23.4445893,0.657454545 L32.868489,13.5206205 L31.3695367,15.7007848 L22.457601,3.52 L3.76271186,29.0414545 L21.5,29.0414545 L22,31.56 Z" id="Path"></path>
                    <path d="M64.461043,31.5607276 C64.0656133,31.5607276 63.6937065,31.3719247 63.4595828,31.0516364 L43.2943416,3.52 L23.1291004,31.0516364 C22.9837592,31.2483255 22.6073924,31.41778 22,31.56 L21.4988697,29.0535311 L42.2957757,0.657454545 C42.5291684,0.337950063 42.8999732,0.14922551 43.2943416,0.14922551 C43.68871,0.14922551 44.0595148,0.337950063 44.2929074,0.657454545 L65.4567145,29.5505455 C65.8667763,30.1096515 65.7518054,30.8964611 65.1991134,31.3134545 C64.9859897,31.4735872 64.7271362,31.5603098 64.461043,31.5607276 Z" id="Path"></path>
                    <path d="M35.5460495,27.5461818 C35.440781,27.4266789 35.2912896,27.355889 35.1325808,27.3503885 C34.9738719,27.3448879 34.8198841,27.40516 34.7066754,27.5170909 L34.6806258,27.5461818 L31.7688657,30.4552727 C31.6510868,30.5592279 31.5802861,30.7067444 31.572649,30.8641004 C31.5650118,31.0214563 31.6211911,31.1751985 31.7283442,31.2901818 C31.740371,31.305168 31.7539552,31.3188212 31.7688657,31.3309091 C31.8707634,31.4469661 32.0144727,31.5174304 32.1681977,31.5267116 C32.3219227,31.535993 32.4729912,31.483326 32.5879791,31.3803636 L32.6342894,31.3309091 L35.1118905,28.8494545 L37.5923859,31.3309091 C37.705058,31.4481728 37.861509,31.5125487 38.0236506,31.5083636 C38.1854379,31.5062618 38.3404811,31.4428908 38.4578096,31.3309091 C38.695585,31.1102781 38.7136124,30.7388436 38.4983312,30.496 L38.4578096,30.4552727 L35.5460495,27.5461818 Z" id="Path"></path>
                    <path d="M35.5460495,24.3258182 C35.4403741,24.206711 35.290661,24.1364593 35.1319582,24.1315091 C34.9732551,24.1265588 34.8194959,24.1873446 34.7066754,24.2996364 L34.6806258,24.3258182 L31.7688657,27.2523636 C31.6510868,27.3563188 31.5802861,27.5038355 31.572649,27.6611914 C31.5650118,27.8185473 31.6211911,27.9722896 31.7283442,28.0872727 C31.7411183,28.1015657 31.754645,28.1151609 31.7688657,28.128 C31.8711657,28.2436434 32.0150866,28.3135635 32.168802,28.3222983 C32.3225172,28.331033 32.4733623,28.2778627 32.5879791,28.1745455 C32.5879791,28.1745455 32.6198175,28.1454545 32.6342894,28.128 L35.1118905,25.6436364 L37.5923859,28.128 C37.7055579,28.2441951 37.8619443,28.3074893 38.0236506,28.3025455 C38.1855016,28.3036111 38.3413384,28.2409599 38.4578096,28.128 C38.694079,27.9066641 38.7120451,27.5364887 38.4983312,27.2930909 L38.4578096,27.2523636 L35.5460495,24.3258182 Z" id="Path"></path>
                    <path d="M35.5460495,21.3498182 C35.4403741,21.230711 35.290661,21.1604593 35.1319582,21.1555091 C34.9732551,21.1505588 34.8194959,21.2113446 34.7066754,21.3236364 L34.6806258,21.3498182 L31.7688657,24.2792727 C31.530464,24.5208417 31.530464,24.910431 31.7688657,25.152 C31.8835804,25.2685445 32.0399138,25.3341244 32.2030248,25.3341244 C32.3661357,25.3341244 32.5224692,25.2685445 32.6371838,25.152 L35.1147849,22.6705455 L37.5952803,25.152 C37.7089487,25.267128 37.8652714,25.329342 38.026545,25.3236364 C38.1876571,25.3236879 38.3427992,25.2623554 38.460704,25.152 C38.6949068,24.9300485 38.710318,24.5608899 38.4954368,24.32 L38.4549153,24.2792727 L35.5460495,21.3498182 Z" id="Path"></path>
                    <path d="M43.731395,27.5461818 C43.6281205,27.4295938 43.4825655,27.3596058 43.3274419,27.3519471 C43.1723183,27.3442883 43.020639,27.3996011 42.9064928,27.5054545 C42.8915824,27.5175424 42.8779981,27.5311955 42.8659713,27.5461818 L39.9715776,30.4552727 C39.8537986,30.5592279 39.782998,30.7067444 39.7753608,30.8641004 C39.7677237,31.0214563 39.823903,31.1751985 39.9310561,31.2901818 C39.9430828,31.305168 39.9566671,31.3188212 39.9715776,31.3309091 C40.0842497,31.4481728 40.2407006,31.5125487 40.4028422,31.5083636 C40.5646296,31.5062618 40.7196727,31.4428908 40.8370013,31.3309091 L43.311708,28.8494545 L45.789309,31.3309091 C45.9032349,31.4489251 46.0598633,31.515529 46.2234681,31.515529 C46.3870728,31.515529 46.5437012,31.4489251 46.6576271,31.3309091 C46.8960288,31.0893402 46.8960288,30.6997507 46.6576271,30.4581818 L43.731395,27.5461818 Z" id="Path"></path>
                    <path d="M43.731395,24.3258182 C43.6281205,24.2092302 43.4825655,24.1392422 43.3274419,24.1315834 C43.1723183,24.1239246 43.020639,24.1792375 42.9064928,24.2850909 L42.8659713,24.3258182 L39.9715776,27.2523636 C39.7957362,27.4250778 39.7427277,27.6882346 39.8378803,27.9160918 C39.9330329,28.143949 40.1570306,28.2902508 40.4028422,28.2850909 C40.5646933,28.2861565 40.72053,28.2235053 40.8370013,28.1105455 L43.311708,25.6261818 L45.789309,28.1105455 C45.8925836,28.2271334 46.0381386,28.2971214 46.1932622,28.3047802 C46.3483857,28.312439 46.500065,28.2571262 46.6142112,28.1512727 C46.6284319,28.1384337 46.6419586,28.1248385 46.6547327,28.1105455 C46.8931344,27.8689765 46.8931344,27.4793871 46.6547327,27.2378182 L46.6547327,27.2378182 L43.731395,24.3258182 Z" id="Path"></path>
                    <path d="M43.731395,21.3498182 C43.6281205,21.2332302 43.4825655,21.1632422 43.3274419,21.1555834 C43.1723183,21.1479246 43.020639,21.2032375 42.9064928,21.3090909 C42.8922721,21.32193 42.8787454,21.3355252 42.8659713,21.3498182 L39.9715776,24.2792727 C39.8537986,24.3832279 39.782998,24.5307446 39.7753608,24.6881005 C39.7677237,24.8454564 39.823903,24.9991987 39.9310561,25.1141818 C39.9438302,25.1284748 39.9573568,25.14207 39.9715776,25.1549091 C40.0867536,25.2677189 40.2420488,25.3295239 40.4028422,25.3265455 C40.5639543,25.326597 40.7190964,25.2652645 40.8370013,25.1549091 L43.2625033,22.6734545 L45.7314211,25.1549091 C45.8461358,25.2714536 46.0024692,25.3370335 46.1655802,25.3370335 C46.3286911,25.3370335 46.4850246,25.2714536 46.5997392,25.1549091 C46.8350372,24.9120638 46.8350372,24.5250271 46.5997392,24.2821818 L43.731395,21.3498182 Z" id="Path"></path>
                    <path d="M51.9109518,27.5461818 C51.8076772,27.4295938 51.6621222,27.3596058 51.5069986,27.3519471 C51.351875,27.3442883 51.2001957,27.3996011 51.0860495,27.5054545 L51.045528,27.5461818 L48.1511343,30.4552727 C48.0333553,30.5592279 47.9625547,30.7067444 47.9549175,30.8641004 C47.9472804,31.0214563 48.0034597,31.1751985 48.1106128,31.2901818 C48.1226396,31.305168 48.1362238,31.3188212 48.1511343,31.3309091 C48.253032,31.4469661 48.3967413,31.5174304 48.5504663,31.5267116 C48.7041913,31.535993 48.8552598,31.483326 48.9702477,31.3803636 L49.016558,31.3309091 L51.4941591,28.8494545 L53.948605,31.3570909 C54.0622733,31.4722191 54.218596,31.5344329 54.3798696,31.5287273 C54.5416011,31.5321617 54.6979635,31.4703471 54.8140287,31.3570909 C55.0523276,31.1335127 55.0677984,30.7590281 54.8487614,30.5163636 L54.8140287,30.4814545 L51.9109518,27.5461818 Z" id="Path"></path>
                    <path d="M51.9109518,24.3258182 C51.8076772,24.2092302 51.6621222,24.1392422 51.5069986,24.1315834 C51.351875,24.1239246 51.2001957,24.1792375 51.0860495,24.2850909 C51.0740228,24.3000772 51.0604385,24.3137303 51.045528,24.3258182 L48.1511343,27.2523636 C48.0333553,27.3563188 47.9625547,27.5038355 47.9549175,27.6611914 C47.9472804,27.8185473 48.0034597,27.9722896 48.1106128,28.0872727 C48.1233869,28.1015657 48.1369136,28.1151609 48.1511343,28.128 C48.2636394,28.2420544 48.4168145,28.3062124 48.5766102,28.3062124 C48.7364059,28.3062124 48.889581,28.2420544 49.002086,28.128 L49.016558,28.128 L51.4941591,25.6436364 L53.948605,28.128 C54.0617769,28.2441951 54.2181633,28.3074893 54.3798696,28.3025455 C54.5419568,28.3048797 54.6982567,28.2420423 54.8140287,28.128 C54.9318076,28.0240449 55.0026083,27.8765282 55.0102454,27.7191722 C55.0178826,27.5618163 54.9617033,27.4080741 54.8545502,27.2930909 L54.8140287,27.2523636 L51.9109518,24.3258182 Z" id="Path"></path>
                    <path d="M51.9109518,21.3498182 C51.8076772,21.2332302 51.6621222,21.1632422 51.5069986,21.1555834 C51.351875,21.1479246 51.2001957,21.2032375 51.0860495,21.3090909 C51.0732754,21.3233839 51.0597488,21.3369791 51.045528,21.3498182 L48.1511343,24.2792727 C47.9127326,24.5208417 47.9127326,24.910431 48.1511343,25.152 C48.265849,25.2685445 48.4221824,25.3341244 48.5852934,25.3341244 C48.7484043,25.3341244 48.9047377,25.2685445 49.0194524,25.152 L51.4970535,22.6705455 L53.9514993,25.152 C54.0651677,25.267128 54.2214904,25.329342 54.382764,25.3236364 C54.5439858,25.3242736 54.6993349,25.2628594 54.8169231,25.152 C54.934702,25.0480449 55.0055027,24.9005282 55.0131398,24.7431722 C55.020777,24.5858163 54.9645977,24.4320741 54.8574446,24.3170909 L54.8169231,24.2763636 L51.9109518,21.3498182 Z" id="Path"></path>
                </g>
                <path d="M70.1625538,11.729425 L70.1625538,11.4453213 C69.7022112,11.4453213 69.4052902,11.3506201 69.2717908,11.1612176 C69.1382914,10.9718151 69.0715418,10.5434047 69.0715418,9.87598647 L69.0715418,9.87598647 L69.0715418,7.76550169 C69.5226775,8.30665163 70.088899,8.57722661 70.770206,8.57722661 C71.4238925,8.57722661 71.9855105,8.33370913 72.45506,7.84667418 C72.9246095,7.35963923 73.1593842,6.77339346 73.1593842,6.08793687 C73.1593842,5.40248027 72.9246095,4.81848929 72.45506,4.33596392 C71.9855105,3.85343856 71.4238925,3.61217587 70.770206,3.61217587 C70.0981058,3.61217587 69.527281,3.88726043 69.0577315,4.43742954 C68.9748698,3.98647125 68.9058184,3.7113867 68.8505773,3.61217587 L68.8505773,3.61217587 L67,3.95039459 L67,4.23449831 C67.4603426,4.23449831 67.7572636,4.32694476 67.890763,4.51183766 C68.0242623,4.69673055 68.091012,5.12739572 68.091012,5.80383315 L68.091012,5.80383315 L68.091012,9.87598647 C68.091012,10.5524239 68.0242623,10.9830891 67.890763,11.167982 C67.7572636,11.3528749 67.4603426,11.4453213 67,11.4453213 L67,11.4453213 L67,11.729425 L70.1625538,11.729425 Z M70.4801902,8.03607666 C70.1671572,8.03607666 69.8886499,7.93912063 69.6446683,7.74520857 C69.4006867,7.55129651 69.2096446,7.28748591 69.0715418,6.95377678 L69.0715418,6.95377678 L69.0715418,5.20856821 C69.2096446,4.88387824 69.4006867,4.62683202 69.6446683,4.43742954 C69.8886499,4.24802706 70.1671572,4.15332582 70.4801902,4.15332582 C70.9865671,4.15332582 71.3732548,4.33370913 71.6402536,4.69447576 C71.9072523,5.05524239 72.0407516,5.51972943 72.0407516,6.08793687 C72.0407516,6.65614431 71.9072523,7.12514092 71.6402536,7.49492672 C71.3732548,7.85569335 70.9865671,8.03607666 70.4801902,8.03607666 Z M77.2748472,8.57722661 C78.0390159,8.57722661 78.6950042,8.33370913 79.2428119,7.84667418 C79.7906196,7.35963923 80.0645234,6.77339346 80.0645234,6.08793687 C80.0645234,5.40248027 79.7883179,4.82074408 79.2359067,4.3427283 C78.6927024,3.85569335 78.0390159,3.61217587 77.2748472,3.61217587 C76.5106784,3.61217587 75.8546902,3.85343856 75.3068825,4.33596392 C74.7590748,4.81848929 74.4851709,5.40248027 74.4851709,6.08793687 C74.4851709,6.77339346 74.7590748,7.35963923 75.3068825,7.84667418 C75.8546902,8.33370913 76.5106784,8.57722661 77.2748472,8.57722661 Z M77.2748472,8.04960541 C76.7316429,8.04960541 76.3173345,7.86471251 76.0319221,7.49492672 C75.7465097,7.12514092 75.6038035,6.65614431 75.6038035,6.08793687 C75.6038035,5.51972943 75.7465097,5.05073281 76.0319221,4.68094701 C76.3173345,4.31116122 76.7316429,4.12626832 77.2748472,4.12626832 C77.8180515,4.12626832 78.2323598,4.30890643 78.5177722,4.67418264 C78.8031847,5.03945885 78.9458909,5.51071026 78.9458909,6.08793687 C78.9458909,6.66516347 78.8031847,7.13866967 78.5177722,7.50845547 C78.2323598,7.8692221 77.8180515,8.04960541 77.2748472,8.04960541 Z M83.4342314,8.59075536 L84.6219153,5.46561443 L85.9891329,8.59075536 L86.2653385,8.59075536 L87.6601766,4.91093574 C87.7706588,4.61330327 87.8995548,4.40586246 88.0468644,4.2886133 C88.194174,4.17136415 88.3921213,4.11273957 88.6407064,4.11273957 L88.6407064,4.11273957 L88.6407064,3.8421646 L86.7072674,3.8421646 L86.7072674,4.11273957 C87.16761,4.11273957 87.3011094,4.37880496 87.1077655,4.91093574 L87.1077655,4.91093574 L86.3620104,7.02142052 L84.953362,3.8421646 L84.6495359,3.8421646 L83.5309033,7.02142052 L82.5918044,4.91093574 C82.3524262,4.37880496 82.5181496,4.11273957 83.0889744,4.11273957 L83.0889744,4.11273957 L83.0889744,3.8421646 L80.589314,3.8421646 L80.589314,4.11273957 C80.8010716,4.11273957 80.9783035,4.17136415 81.1210097,4.2886133 C81.2637159,4.40586246 81.399517,4.61330327 81.5284129,4.91093574 L81.5284129,4.91093574 L83.1580258,8.59075536 L83.4342314,8.59075536 Z M91.6513471,8.57722661 C92.0380349,8.57722661 92.4247227,8.49379932 92.8114105,8.32694476 C93.1980983,8.16009019 93.5157347,7.94588501 93.7643197,7.6843292 L93.7643197,7.6843292 L93.5157347,7.38669673 C93.3223908,7.56708005 93.0784092,7.71589628 92.7837899,7.83314543 C92.4891706,7.95039459 92.2267753,8.00901917 91.996604,8.00901917 C91.315297,8.00901917 90.8250321,7.79932356 90.5258094,7.37993236 C90.2265867,6.96054115 90.1184062,6.41713641 90.2012678,5.74971815 L90.2012678,5.74971815 L93.5295449,5.74971815 C93.6952683,5.18151071 93.5801826,4.6832018 93.184288,4.25479143 C92.7883933,3.82638106 92.277413,3.61217587 91.6513471,3.61217587 C90.9884537,3.61217587 90.3969134,3.85118377 89.8767263,4.32919955 C89.3565391,4.80721533 89.0964456,5.3934611 89.0964456,6.08793687 C89.0964456,6.78241263 89.3358237,7.37091319 89.81458,7.85343856 C90.2933364,8.33596392 90.905592,8.57722661 91.6513471,8.57722661 Z M92.5766357,5.24915445 L90.2841295,5.24915445 C90.3854049,4.91544532 90.5534299,4.64937993 90.7882047,4.45095829 C91.0229794,4.25253664 91.2876764,4.15332582 91.5822957,4.15332582 C91.996604,4.15332582 92.2889216,4.27282976 92.4592484,4.51183766 C92.6295751,4.75084555 92.6687042,4.99661781 92.5766357,5.24915445 L92.5766357,5.24915445 Z M97.9488341,8.34723788 L97.9488341,8.06313416 C97.4884914,8.06313416 97.1915704,7.96843292 97.0580711,7.77903044 C96.9245717,7.58962796 96.8578221,7.156708 96.8578221,6.48027057 L96.8578221,6.48027057 L96.8578221,5.7361894 C96.8578221,5.25817362 96.9821146,4.87485908 97.2306996,4.58624577 C97.4792846,4.29763247 97.7094559,4.15332582 97.9212135,4.15332582 C98.2158328,4.15332582 98.3631424,4.30214205 98.3631424,4.59977452 C98.3631424,4.72604284 98.4114784,4.83878241 98.5081503,4.93799324 C98.6048223,5.03720406 98.7176062,5.08680947 98.8465022,5.08680947 C99.2147762,5.08680947 99.3989133,4.87485908 99.3989133,4.45095829 C99.3989133,4.25253664 99.3045431,4.06313416 99.1158026,3.88275085 C98.9270621,3.70236753 98.6577617,3.61217587 98.3079013,3.61217587 C98.0316957,3.61217587 97.7554902,3.70687711 97.4792846,3.89627959 C97.203079,4.08568207 96.9959248,4.3156708 96.8578221,4.58624577 C96.7841672,4.10822999 96.705909,3.78354002 96.6230473,3.61217587 L96.6230473,3.61217587 L94.7862803,3.95039459 L94.7862803,4.23449831 C95.2466229,4.23449831 95.5435439,4.32919955 95.6770432,4.51860203 C95.8105426,4.70800451 95.8772923,5.13641488 95.8772923,5.80383315 L95.8772923,5.80383315 L95.8772923,6.48027057 C95.8772923,7.156708 95.8105426,7.58962796 95.6770432,7.77903044 C95.5435439,7.96843292 95.2466229,8.06313416 94.7862803,8.06313416 L94.7862803,8.06313416 L94.7862803,8.34723788 L97.9488341,8.34723788 Z M102.906724,8.57722661 C103.293412,8.57722661 103.6801,8.49379932 104.066787,8.32694476 C104.453475,8.16009019 104.771112,7.94588501 105.019697,7.6843292 L105.019697,7.6843292 L104.771112,7.38669673 C104.577768,7.56708005 104.333786,7.71589628 104.039167,7.83314543 C103.744548,7.95039459 103.482152,8.00901917 103.251981,8.00901917 C102.570674,8.00901917 102.080409,7.79932356 101.781186,7.37993236 C101.481964,6.96054115 101.373783,6.41713641 101.456645,5.74971815 L101.456645,5.74971815 L104.784922,5.74971815 C104.950645,5.18151071 104.83556,4.6832018 104.439665,4.25479143 C104.04377,3.82638106 103.53279,3.61217587 102.906724,3.61217587 C102.243831,3.61217587 101.65229,3.85118377 101.132103,4.32919955 C100.611916,4.80721533 100.351823,5.3934611 100.351823,6.08793687 C100.351823,6.78241263 100.591201,7.37091319 101.069957,7.85343856 C101.548713,8.33596392 102.160969,8.57722661 102.906724,8.57722661 Z M103.832013,5.24915445 L101.539506,5.24915445 C101.640782,4.91544532 101.808807,4.64937993 102.043582,4.45095829 C102.278356,4.25253664 102.543053,4.15332582 102.837673,4.15332582 C103.251981,4.15332582 103.544299,4.27282976 103.714625,4.51183766 C103.884952,4.75084555 103.924081,4.99661781 103.832013,5.24915445 L103.832013,5.24915445 Z M110.502377,8.57722661 L112.339144,8.23900789 L112.339144,7.95490417 C111.878802,7.95490417 111.581881,7.86020293 111.448381,7.67080045 C111.314882,7.48139797 111.248132,7.04847802 111.248132,6.37204059 L111.248132,6.37204059 L111.248132,0 L109.17659,0.338218715 L109.17659,0.622322435 C109.636933,0.622322435 109.933854,0.717023675 110.067353,0.906426156 C110.200853,1.09582864 110.267602,1.52874859 110.267602,2.20518602 L110.267602,2.20518602 L110.267602,4.41037204 C109.825674,3.87824126 109.264056,3.61217587 108.582748,3.61217587 C107.929062,3.61217587 107.365142,3.85343856 106.890989,4.33596392 C106.416836,4.81848929 106.17976,5.40248027 106.17976,6.08793687 C106.17976,6.77339346 106.416836,7.35963923 106.890989,7.84667418 C107.365142,8.33370913 107.929062,8.57722661 108.582748,8.57722661 C109.264056,8.57722661 109.830277,8.30214205 110.281413,7.75197294 C110.364274,8.16685457 110.437929,8.44193912 110.502377,8.57722661 L110.502377,8.57722661 Z M108.872764,8.03607666 C108.357181,8.03607666 107.965889,7.85569335 107.698891,7.49492672 C107.431892,7.13416009 107.298393,6.66516347 107.298393,6.08793687 C107.298393,5.51972943 107.431892,5.05524239 107.698891,4.69447576 C107.965889,4.33370913 108.357181,4.15332582 108.872764,4.15332582 C109.17659,4.15332582 109.452796,4.25028185 109.701381,4.44419391 C109.949966,4.63810598 110.138707,4.89740699 110.267602,5.22209696 L110.267602,5.22209696 L110.267602,6.96730552 C110.138707,7.29199549 109.949966,7.55129651 109.701381,7.74520857 C109.452796,7.93912063 109.17659,8.03607666 108.872764,8.03607666 Z M117.241793,8.57722661 L117.849445,7.67080045 C118.282167,8.27508455 118.871406,8.57722661 119.617161,8.57722661 C120.270847,8.57722661 120.832465,8.33370913 121.302015,7.84667418 C121.771564,7.35963923 122.006339,6.77339346 122.006339,6.08793687 C122.006339,5.40248027 121.771564,4.81848929 121.302015,4.33596392 C120.832465,3.85343856 120.270847,3.61217587 119.617161,3.61217587 C118.935854,3.61217587 118.374236,3.87824126 117.932307,4.41037204 L117.932307,4.41037204 L117.932307,0 L115.860765,0.338218715 L115.860765,0.622322435 C116.321108,0.622322435 116.618029,0.717023675 116.751528,0.906426156 C116.885028,1.09582864 116.951777,1.52874859 116.951777,2.20518602 L116.951777,2.20518602 L116.951777,8.57722661 L117.241793,8.57722661 Z M119.327145,8.03607666 C119.014112,8.03607666 118.735605,7.93912063 118.491623,7.74520857 C118.247642,7.55129651 118.061203,7.28748591 117.932307,6.95377678 L117.932307,6.95377678 L117.932307,5.22209696 C118.061203,4.89740699 118.247642,4.63810598 118.491623,4.44419391 C118.735605,4.25028185 119.014112,4.15332582 119.327145,4.15332582 C119.842729,4.15332582 120.23402,4.33370913 120.501019,4.69447576 C120.768018,5.05524239 120.901517,5.51972943 120.901517,6.08793687 C120.901517,6.66516347 120.768018,7.13416009 120.501019,7.49492672 C120.23402,7.85569335 119.842729,8.03607666 119.327145,8.03607666 Z M123.815486,12 C124.018036,12 124.188363,11.8331454 124.326466,11.4994363 L124.326466,11.4994363 L127.01947,4.91093574 C127.240435,4.37880496 127.567278,4.11273957 128,4.11273957 L128,4.11273957 L128,3.8421646 L126.066561,3.8421646 L126.066561,4.11273957 C126.351973,4.11273957 126.5223,4.16910936 126.577541,4.28184893 C126.632782,4.3945885 126.595955,4.6042841 126.467059,4.91093574 L126.467059,4.91093574 L125.583201,7.07553551 L124.575051,4.91093574 C124.427741,4.57722661 124.38631,4.36076663 124.450758,4.26155581 C124.515206,4.16234498 124.703947,4.11273957 125.01698,4.11273957 L125.01698,4.11273957 L125.01698,3.8421646 L122.572561,3.8421646 L122.572561,4.11273957 C122.784318,4.11273957 122.954645,4.16910936 123.083541,4.28184893 C123.212437,4.3945885 123.35054,4.6042841 123.497849,4.91093574 L123.497849,4.91093574 L125.086031,8.27959414 L124.395517,9.97068771 C124.275828,10.2683202 124.126217,10.5140924 123.946683,10.7080045 C123.76715,10.9019166 123.622142,11.0552424 123.511659,11.167982 C123.401177,11.2807215 123.345936,11.4092446 123.345936,11.5535513 C123.345936,11.7068771 123.394272,11.8196167 123.490944,11.89177 C123.587616,11.9639233 123.695797,12 123.815486,12 Z" id="poweredby" fill="#2E2825"></path>
            </g>
            <path d="M70.1625538,11.729425 L70.1625538,11.4453213 C69.7022112,11.4453213 69.4052902,11.3506201 69.2717908,11.1612176 C69.1382914,10.9718151 69.0715418,10.5434047 69.0715418,9.87598647 L69.0715418,9.87598647 L69.0715418,7.76550169 C69.5226775,8.30665163 70.088899,8.57722661 70.770206,8.57722661 C71.4238925,8.57722661 71.9855105,8.33370913 72.45506,7.84667418 C72.9246095,7.35963923 73.1593842,6.77339346 73.1593842,6.08793687 C73.1593842,5.40248027 72.9246095,4.81848929 72.45506,4.33596392 C71.9855105,3.85343856 71.4238925,3.61217587 70.770206,3.61217587 C70.0981058,3.61217587 69.527281,3.88726043 69.0577315,4.43742954 C68.9748698,3.98647125 68.9058184,3.7113867 68.8505773,3.61217587 L68.8505773,3.61217587 L67,3.95039459 L67,4.23449831 C67.4603426,4.23449831 67.7572636,4.32694476 67.890763,4.51183766 C68.0242623,4.69673055 68.091012,5.12739572 68.091012,5.80383315 L68.091012,5.80383315 L68.091012,9.87598647 C68.091012,10.5524239 68.0242623,10.9830891 67.890763,11.167982 C67.7572636,11.3528749 67.4603426,11.4453213 67,11.4453213 L67,11.4453213 L67,11.729425 L70.1625538,11.729425 Z M70.4801902,8.03607666 C70.1671572,8.03607666 69.8886499,7.93912063 69.6446683,7.74520857 C69.4006867,7.55129651 69.2096446,7.28748591 69.0715418,6.95377678 L69.0715418,6.95377678 L69.0715418,5.20856821 C69.2096446,4.88387824 69.4006867,4.62683202 69.6446683,4.43742954 C69.8886499,4.24802706 70.1671572,4.15332582 70.4801902,4.15332582 C70.9865671,4.15332582 71.3732548,4.33370913 71.6402536,4.69447576 C71.9072523,5.05524239 72.0407516,5.51972943 72.0407516,6.08793687 C72.0407516,6.65614431 71.9072523,7.12514092 71.6402536,7.49492672 C71.3732548,7.85569335 70.9865671,8.03607666 70.4801902,8.03607666 Z M77.2748472,8.57722661 C78.0390159,8.57722661 78.6950042,8.33370913 79.2428119,7.84667418 C79.7906196,7.35963923 80.0645234,6.77339346 80.0645234,6.08793687 C80.0645234,5.40248027 79.7883179,4.82074408 79.2359067,4.3427283 C78.6927024,3.85569335 78.0390159,3.61217587 77.2748472,3.61217587 C76.5106784,3.61217587 75.8546902,3.85343856 75.3068825,4.33596392 C74.7590748,4.81848929 74.4851709,5.40248027 74.4851709,6.08793687 C74.4851709,6.77339346 74.7590748,7.35963923 75.3068825,7.84667418 C75.8546902,8.33370913 76.5106784,8.57722661 77.2748472,8.57722661 Z M77.2748472,8.04960541 C76.7316429,8.04960541 76.3173345,7.86471251 76.0319221,7.49492672 C75.7465097,7.12514092 75.6038035,6.65614431 75.6038035,6.08793687 C75.6038035,5.51972943 75.7465097,5.05073281 76.0319221,4.68094701 C76.3173345,4.31116122 76.7316429,4.12626832 77.2748472,4.12626832 C77.8180515,4.12626832 78.2323598,4.30890643 78.5177722,4.67418264 C78.8031847,5.03945885 78.9458909,5.51071026 78.9458909,6.08793687 C78.9458909,6.66516347 78.8031847,7.13866967 78.5177722,7.50845547 C78.2323598,7.8692221 77.8180515,8.04960541 77.2748472,8.04960541 Z M83.4342314,8.59075536 L84.6219153,5.46561443 L85.9891329,8.59075536 L86.2653385,8.59075536 L87.6601766,4.91093574 C87.7706588,4.61330327 87.8995548,4.40586246 88.0468644,4.2886133 C88.194174,4.17136415 88.3921213,4.11273957 88.6407064,4.11273957 L88.6407064,4.11273957 L88.6407064,3.8421646 L86.7072674,3.8421646 L86.7072674,4.11273957 C87.16761,4.11273957 87.3011094,4.37880496 87.1077655,4.91093574 L87.1077655,4.91093574 L86.3620104,7.02142052 L84.953362,3.8421646 L84.6495359,3.8421646 L83.5309033,7.02142052 L82.5918044,4.91093574 C82.3524262,4.37880496 82.5181496,4.11273957 83.0889744,4.11273957 L83.0889744,4.11273957 L83.0889744,3.8421646 L80.589314,3.8421646 L80.589314,4.11273957 C80.8010716,4.11273957 80.9783035,4.17136415 81.1210097,4.2886133 C81.2637159,4.40586246 81.399517,4.61330327 81.5284129,4.91093574 L81.5284129,4.91093574 L83.1580258,8.59075536 L83.4342314,8.59075536 Z M91.6513471,8.57722661 C92.0380349,8.57722661 92.4247227,8.49379932 92.8114105,8.32694476 C93.1980983,8.16009019 93.5157347,7.94588501 93.7643197,7.6843292 L93.7643197,7.6843292 L93.5157347,7.38669673 C93.3223908,7.56708005 93.0784092,7.71589628 92.7837899,7.83314543 C92.4891706,7.95039459 92.2267753,8.00901917 91.996604,8.00901917 C91.315297,8.00901917 90.8250321,7.79932356 90.5258094,7.37993236 C90.2265867,6.96054115 90.1184062,6.41713641 90.2012678,5.74971815 L90.2012678,5.74971815 L93.5295449,5.74971815 C93.6952683,5.18151071 93.5801826,4.6832018 93.184288,4.25479143 C92.7883933,3.82638106 92.277413,3.61217587 91.6513471,3.61217587 C90.9884537,3.61217587 90.3969134,3.85118377 89.8767263,4.32919955 C89.3565391,4.80721533 89.0964456,5.3934611 89.0964456,6.08793687 C89.0964456,6.78241263 89.3358237,7.37091319 89.81458,7.85343856 C90.2933364,8.33596392 90.905592,8.57722661 91.6513471,8.57722661 Z M92.5766357,5.24915445 L90.2841295,5.24915445 C90.3854049,4.91544532 90.5534299,4.64937993 90.7882047,4.45095829 C91.0229794,4.25253664 91.2876764,4.15332582 91.5822957,4.15332582 C91.996604,4.15332582 92.2889216,4.27282976 92.4592484,4.51183766 C92.6295751,4.75084555 92.6687042,4.99661781 92.5766357,5.24915445 L92.5766357,5.24915445 Z M97.9488341,8.34723788 L97.9488341,8.06313416 C97.4884914,8.06313416 97.1915704,7.96843292 97.0580711,7.77903044 C96.9245717,7.58962796 96.8578221,7.156708 96.8578221,6.48027057 L96.8578221,6.48027057 L96.8578221,5.7361894 C96.8578221,5.25817362 96.9821146,4.87485908 97.2306996,4.58624577 C97.4792846,4.29763247 97.7094559,4.15332582 97.9212135,4.15332582 C98.2158328,4.15332582 98.3631424,4.30214205 98.3631424,4.59977452 C98.3631424,4.72604284 98.4114784,4.83878241 98.5081503,4.93799324 C98.6048223,5.03720406 98.7176062,5.08680947 98.8465022,5.08680947 C99.2147762,5.08680947 99.3989133,4.87485908 99.3989133,4.45095829 C99.3989133,4.25253664 99.3045431,4.06313416 99.1158026,3.88275085 C98.9270621,3.70236753 98.6577617,3.61217587 98.3079013,3.61217587 C98.0316957,3.61217587 97.7554902,3.70687711 97.4792846,3.89627959 C97.203079,4.08568207 96.9959248,4.3156708 96.8578221,4.58624577 C96.7841672,4.10822999 96.705909,3.78354002 96.6230473,3.61217587 L96.6230473,3.61217587 L94.7862803,3.95039459 L94.7862803,4.23449831 C95.2466229,4.23449831 95.5435439,4.32919955 95.6770432,4.51860203 C95.8105426,4.70800451 95.8772923,5.13641488 95.8772923,5.80383315 L95.8772923,5.80383315 L95.8772923,6.48027057 C95.8772923,7.156708 95.8105426,7.58962796 95.6770432,7.77903044 C95.5435439,7.96843292 95.2466229,8.06313416 94.7862803,8.06313416 L94.7862803,8.06313416 L94.7862803,8.34723788 L97.9488341,8.34723788 Z M102.906724,8.57722661 C103.293412,8.57722661 103.6801,8.49379932 104.066787,8.32694476 C104.453475,8.16009019 104.771112,7.94588501 105.019697,7.6843292 L105.019697,7.6843292 L104.771112,7.38669673 C104.577768,7.56708005 104.333786,7.71589628 104.039167,7.83314543 C103.744548,7.95039459 103.482152,8.00901917 103.251981,8.00901917 C102.570674,8.00901917 102.080409,7.79932356 101.781186,7.37993236 C101.481964,6.96054115 101.373783,6.41713641 101.456645,5.74971815 L101.456645,5.74971815 L104.784922,5.74971815 C104.950645,5.18151071 104.83556,4.6832018 104.439665,4.25479143 C104.04377,3.82638106 103.53279,3.61217587 102.906724,3.61217587 C102.243831,3.61217587 101.65229,3.85118377 101.132103,4.32919955 C100.611916,4.80721533 100.351823,5.3934611 100.351823,6.08793687 C100.351823,6.78241263 100.591201,7.37091319 101.069957,7.85343856 C101.548713,8.33596392 102.160969,8.57722661 102.906724,8.57722661 Z M103.832013,5.24915445 L101.539506,5.24915445 C101.640782,4.91544532 101.808807,4.64937993 102.043582,4.45095829 C102.278356,4.25253664 102.543053,4.15332582 102.837673,4.15332582 C103.251981,4.15332582 103.544299,4.27282976 103.714625,4.51183766 C103.884952,4.75084555 103.924081,4.99661781 103.832013,5.24915445 L103.832013,5.24915445 Z M110.502377,8.57722661 L112.339144,8.23900789 L112.339144,7.95490417 C111.878802,7.95490417 111.581881,7.86020293 111.448381,7.67080045 C111.314882,7.48139797 111.248132,7.04847802 111.248132,6.37204059 L111.248132,6.37204059 L111.248132,0 L109.17659,0.338218715 L109.17659,0.622322435 C109.636933,0.622322435 109.933854,0.717023675 110.067353,0.906426156 C110.200853,1.09582864 110.267602,1.52874859 110.267602,2.20518602 L110.267602,2.20518602 L110.267602,4.41037204 C109.825674,3.87824126 109.264056,3.61217587 108.582748,3.61217587 C107.929062,3.61217587 107.365142,3.85343856 106.890989,4.33596392 C106.416836,4.81848929 106.17976,5.40248027 106.17976,6.08793687 C106.17976,6.77339346 106.416836,7.35963923 106.890989,7.84667418 C107.365142,8.33370913 107.929062,8.57722661 108.582748,8.57722661 C109.264056,8.57722661 109.830277,8.30214205 110.281413,7.75197294 C110.364274,8.16685457 110.437929,8.44193912 110.502377,8.57722661 L110.502377,8.57722661 Z M108.872764,8.03607666 C108.357181,8.03607666 107.965889,7.85569335 107.698891,7.49492672 C107.431892,7.13416009 107.298393,6.66516347 107.298393,6.08793687 C107.298393,5.51972943 107.431892,5.05524239 107.698891,4.69447576 C107.965889,4.33370913 108.357181,4.15332582 108.872764,4.15332582 C109.17659,4.15332582 109.452796,4.25028185 109.701381,4.44419391 C109.949966,4.63810598 110.138707,4.89740699 110.267602,5.22209696 L110.267602,5.22209696 L110.267602,6.96730552 C110.138707,7.29199549 109.949966,7.55129651 109.701381,7.74520857 C109.452796,7.93912063 109.17659,8.03607666 108.872764,8.03607666 Z M117.241793,8.57722661 L117.849445,7.67080045 C118.282167,8.27508455 118.871406,8.57722661 119.617161,8.57722661 C120.270847,8.57722661 120.832465,8.33370913 121.302015,7.84667418 C121.771564,7.35963923 122.006339,6.77339346 122.006339,6.08793687 C122.006339,5.40248027 121.771564,4.81848929 121.302015,4.33596392 C120.832465,3.85343856 120.270847,3.61217587 119.617161,3.61217587 C118.935854,3.61217587 118.374236,3.87824126 117.932307,4.41037204 L117.932307,4.41037204 L117.932307,0 L115.860765,0.338218715 L115.860765,0.622322435 C116.321108,0.622322435 116.618029,0.717023675 116.751528,0.906426156 C116.885028,1.09582864 116.951777,1.52874859 116.951777,2.20518602 L116.951777,2.20518602 L116.951777,8.57722661 L117.241793,8.57722661 Z M119.327145,8.03607666 C119.014112,8.03607666 118.735605,7.93912063 118.491623,7.74520857 C118.247642,7.55129651 118.061203,7.28748591 117.932307,6.95377678 L117.932307,6.95377678 L117.932307,5.22209696 C118.061203,4.89740699 118.247642,4.63810598 118.491623,4.44419391 C118.735605,4.25028185 119.014112,4.15332582 119.327145,4.15332582 C119.842729,4.15332582 120.23402,4.33370913 120.501019,4.69447576 C120.768018,5.05524239 120.901517,5.51972943 120.901517,6.08793687 C120.901517,6.66516347 120.768018,7.13416009 120.501019,7.49492672 C120.23402,7.85569335 119.842729,8.03607666 119.327145,8.03607666 Z M123.815486,12 C124.018036,12 124.188363,11.8331454 124.326466,11.4994363 L124.326466,11.4994363 L127.01947,4.91093574 C127.240435,4.37880496 127.567278,4.11273957 128,4.11273957 L128,4.11273957 L128,3.8421646 L126.066561,3.8421646 L126.066561,4.11273957 C126.351973,4.11273957 126.5223,4.16910936 126.577541,4.28184893 C126.632782,4.3945885 126.595955,4.6042841 126.467059,4.91093574 L126.467059,4.91093574 L125.583201,7.07553551 L124.575051,4.91093574 C124.427741,4.57722661 124.38631,4.36076663 124.450758,4.26155581 C124.515206,4.16234498 124.703947,4.11273957 125.01698,4.11273957 L125.01698,4.11273957 L125.01698,3.8421646 L122.572561,3.8421646 L122.572561,4.11273957 C122.784318,4.11273957 122.954645,4.16910936 123.083541,4.28184893 C123.212437,4.3945885 123.35054,4.6042841 123.497849,4.91093574 L123.497849,4.91093574 L125.086031,8.27959414 L124.395517,9.97068771 C124.275828,10.2683202 124.126217,10.5140924 123.946683,10.7080045 C123.76715,10.9019166 123.622142,11.0552424 123.511659,11.167982 C123.401177,11.2807215 123.345936,11.4092446 123.345936,11.5535513 C123.345936,11.7068771 123.394272,11.8196167 123.490944,11.89177 C123.587616,11.9639233 123.695797,12 123.815486,12 Z" id="poweredby" fill="#2E2825"></path>
        </g>
    </g>
</svg>