<?xml version="1.0" encoding="UTF-8"?>
<svg width="460px" height="130px" viewBox="0 0 460 130" version="1.1" xmlns="http://www.w3.org/2000/svg" xmlns:xlink="http://www.w3.org/1999/xlink">
    <!-- Generator: Sketch 64 (93537) - https://sketch.com -->
    <title>Apiarium_Logotype</title>
    <desc>Created with Sketch.</desc>
    <g id="Apiarium_Logotype" stroke="none" stroke-width="1" fill="none" fill-rule="evenodd">
        <path d="M20,91 L30.2,67 L64,67 L74.2,91 L77,91 L48.5,23.8 L45.7,23.8 L17.2,91 L20,91 Z M62.8,64.2 L31.4,64.2 L47.1,27.1 L62.8,64.2 Z M92.5,115.2 L92.5,77.5 C94.7,81.7666667 97.85,85.1833333 101.95,87.75 C106.05,90.3166667 110.566667,91.6 115.5,91.6 C122.633333,91.6 128.716667,89.0833333 133.75,84.05 C138.783333,79.0166667 141.3,72.9333333 141.3,65.8 C141.3,58.6666667 138.783333,52.5833333 133.75,47.55 C128.716667,42.5166667 122.633333,40 115.5,40 C110.566667,40 106.05,41.2833333 101.95,43.85 C97.85,46.4166667 94.7,49.8333333 92.5,54.1 L92.5,54.1 L92.5,40.8 L89.7,40.8 L89.7,115.2 L92.5,115.2 Z M115.5,88.8 C109.166667,88.8 103.733333,86.5666667 99.2,82.1 C94.7333333,77.5666667 92.5,72.1333333 92.5,65.8 C92.5,59.4666667 94.75,54.0333333 99.25,49.5 C103.75,44.9666667 109.166667,42.7 115.5,42.7 C121.833333,42.7 127.266667,44.9666667 131.8,49.5 C136.333333,54.0333333 138.6,59.4666667 138.6,65.8 C138.6,72.1333333 136.333333,77.55 131.8,82.05 C127.266667,86.55 121.833333,88.8 115.5,88.8 Z M157.2,24.3 C157.8,24.3 158.3,24.1 158.7,23.7 C159.166667,23.2333333 159.4,22.7 159.4,22.1 C159.4,21.5 159.183333,20.9833333 158.75,20.55 C158.316667,20.1166667 157.8,19.9 157.2,19.9 C156.6,19.9 156.083333,20.1166667 155.65,20.55 C155.216667,20.9833333 155,21.5 155,22.1 C155,22.7 155.216667,23.2166667 155.65,23.65 C156.083333,24.0833333 156.6,24.3 157.2,24.3 Z M158.6,91 L158.6,41 L155.8,41 L155.8,91 L158.6,91 Z M197.9,91.8 C202.833333,91.8 207.35,90.5166667 211.45,87.95 C215.55,85.3833333 218.7,81.9666667 220.9,77.7 L220.9,77.7 L220.9,91 L223.7,91 L223.7,41 L220.9,41 L220.9,54.3 C218.7,50.0333333 215.55,46.6166667 211.45,44.05 C207.35,41.4833333 202.833333,40.2 197.9,40.2 C190.766667,40.2 184.683333,42.7166667 179.65,47.75 C174.616667,52.7833333 172.1,58.8666667 172.1,66 C172.1,73.1333333 174.616667,79.2166667 179.65,84.25 C184.683333,89.2833333 190.766667,91.8 197.9,91.8 Z M197.9,89 C191.566667,89 186.133333,86.7666667 181.6,82.3 C177.066667,77.7666667 174.8,72.3333333 174.8,66 C174.8,59.6666667 177.066667,54.25 181.6,49.75 C186.133333,45.25 191.566667,43 197.9,43 C204.233333,43 209.65,45.25 214.15,49.75 C218.65,54.25 220.9,59.6666667 220.9,66 C220.9,72.3333333 218.65,77.75 214.15,82.25 C209.65,86.75 204.233333,89 197.9,89 Z M241.9,91 L241.9,60.6 C241.9,55.6666667 243.616667,51.4833333 247.05,48.05 C250.483333,44.6166667 254.633333,42.9 259.5,42.9 C263.033333,42.9 266.333333,43.9333333 269.4,46 L269.4,46 L270.8,43.6 C267.4,41.3333333 263.633333,40.2 259.5,40.2 C255.766667,40.2 252.35,41.1166667 249.25,42.95 C246.15,44.7833333 243.7,47.2333333 241.9,50.3 L241.9,50.3 L241.9,41 L239.1,41 L239.1,91 L241.9,91 Z M283.7,24.3 C284.3,24.3 284.8,24.1 285.2,23.7 C285.666667,23.2333333 285.9,22.7 285.9,22.1 C285.9,21.5 285.683333,20.9833333 285.25,20.55 C284.816667,20.1166667 284.3,19.9 283.7,19.9 C283.1,19.9 282.583333,20.1166667 282.15,20.55 C281.716667,20.9833333 281.5,21.5 281.5,22.1 C281.5,22.7 281.716667,23.2166667 282.15,23.65 C282.583333,24.0833333 283.1,24.3 283.7,24.3 Z M285.1,91 L285.1,41 L282.3,41 L282.3,91 L285.1,91 Z M322.3,91.8 C326.033333,91.8 329.45,90.8833333 332.55,89.05 C335.65,87.2166667 338.1,84.7666667 339.9,81.7 L339.9,81.7 L339.9,91 L342.7,91 L342.7,41 L339.9,41 L339.9,71.4 C339.9,76.2666667 338.183333,80.4166667 334.75,83.85 C331.316667,87.2833333 327.166667,89 322.3,89 C317.433333,89 313.283333,87.2833333 309.85,83.85 C306.416667,80.4166667 304.7,76.2666667 304.7,71.4 L304.7,71.4 L304.7,41 L301.9,41 L301.9,71.4 C301.9,77.0666667 303.9,81.8833333 307.9,85.85 C311.9,89.8166667 316.7,91.8 322.3,91.8 Z M361.2,91 L361.2,60.6 C361.2,55.7333333 362.916667,51.5666667 366.35,48.1 C369.783333,44.6333333 373.933333,42.9 378.8,42.9 C383.666667,42.9 387.816667,44.6333333 391.25,48.1 C394.683333,51.5666667 396.4,55.7333333 396.4,60.6 L396.4,60.6 L396.4,91 L399.2,91 L399.2,60.6 C399.2,55.7333333 400.916667,51.5666667 404.35,48.1 C407.783333,44.6333333 411.933333,42.9 416.8,42.9 C421.666667,42.9 425.816667,44.6166667 429.25,48.05 C432.683333,51.4833333 434.4,55.6666667 434.4,60.6 L434.4,60.6 L434.4,91 L437.2,91 L437.2,60.6 C437.2,54.9333333 435.216667,50.1166667 431.25,46.15 C427.283333,42.1833333 422.466667,40.2 416.8,40.2 C412.533333,40.2 408.683333,41.4 405.25,43.8 C401.816667,46.2 399.333333,49.3333333 397.8,53.2 C396.266667,49.3333333 393.783333,46.2 390.35,43.8 C386.916667,41.4 383.066667,40.2 378.8,40.2 C375.066667,40.2 371.65,41.1166667 368.55,42.95 C365.45,44.7833333 363,47.2333333 361.2,50.3 L361.2,50.3 L361.2,41 L358.4,41 L358.4,91 L361.2,91 Z" id="Apiarium" fill="#F39E6C" fill-rule="nonzero"></path>
    </g>
</svg>